<svg width="166" height="31" viewBox="0 0 166 31" fill="none" xmlns="http://www.w3.org/2000/svg">
<path d="M5.664 3.2656C6.8544 3.2656 7.808 3.432 8.5248 3.7648C9.2416 4.0848 9.7536 4.6096 10.0608 5.3392C10.3808 6.0688 10.5408 7.048 10.5408 8.2768C10.5408 9.48 10.3808 10.4464 10.0608 11.176C9.7536 11.9056 9.2416 12.4304 8.5248 12.7504C7.808 13.0704 6.8544 13.2304 5.664 13.2304C4.4864 13.2304 3.5328 13.0704 2.8032 12.7504C2.0864 12.4304 1.568 11.9056 1.248 11.176C0.928 10.4464 0.768 9.48 0.768 8.2768C0.768 7.048 0.928 6.0688 1.248 5.3392C1.568 4.6096 2.0864 4.0848 2.8032 3.7648C3.5328 3.432 4.4864 3.2656 5.664 3.2656ZM5.664 5.3392C5.1776 5.3392 4.7936 5.4224 4.512 5.5888C4.2304 5.7552 4.032 6.0496 3.9168 6.472C3.8016 6.8944 3.744 7.496 3.744 8.2768C3.744 9.0448 3.8016 9.64 3.9168 10.0624C4.032 10.4848 4.2304 10.7792 4.512 10.9456C4.7936 11.0992 5.1776 11.176 5.664 11.176C6.1504 11.176 6.5344 11.0992 6.816 10.9456C7.0976 10.7792 7.296 10.4848 7.4112 10.0624C7.5264 9.64 7.584 9.0448 7.584 8.2768C7.584 7.496 7.5264 6.8944 7.4112 6.472C7.296 6.0496 7.0976 5.7552 6.816 5.5888C6.5344 5.4224 6.1504 5.3392 5.664 5.3392ZM28.5568 7.904C30.4981 7.904 31.8954 8.61867 32.7488 10.048C33.6021 11.4773 34.0288 13.5467 34.0288 16.256C34.0288 18.3253 33.8048 19.9573 33.3568 21.152C32.9301 22.3253 32.2794 23.168 31.4048 23.68C30.5301 24.1707 29.4208 24.416 28.0768 24.416C27.0101 24.416 25.9648 24.2667 24.9408 23.968C23.9381 23.648 23.0101 23.1573 22.1568 22.496L22.4128 20.576C23.2448 20.8107 23.9914 21.0133 24.6528 21.184C25.3141 21.3547 26.0394 21.44 26.8288 21.44C27.6181 21.44 28.2368 21.312 28.6848 21.056C29.1541 20.7787 29.4954 20.2667 29.7088 19.52C29.9221 18.7733 30.0288 17.696 30.0288 16.288C30.0288 14.9013 29.9328 13.824 29.7408 13.056C29.5488 12.288 29.2288 11.7547 28.7808 11.456C28.3541 11.136 27.7888 10.976 27.0848 10.976C26.3168 10.976 25.5914 11.1467 24.9088 11.488C24.2261 11.808 23.4368 12.288 22.5408 12.928L22.0928 10.88C22.5834 10.304 23.1701 9.792 23.8528 9.344C24.5568 8.896 25.3141 8.544 26.1248 8.288C26.9354 8.032 27.7461 7.904 28.5568 7.904ZM21.9328 8.288L22.3168 11.328L22.6688 11.776V21.92L22.5088 22.304C22.5728 22.9227 22.6154 23.5413 22.6368 24.16C22.6581 24.8 22.6688 25.4507 22.6688 26.112V30.24H18.7968V8.288H21.9328ZM41.5103 8.288V18.912C41.4889 19.7013 41.6383 20.2667 41.9583 20.608C42.2996 20.9493 42.8436 21.12 43.5903 21.12C44.3369 21.12 45.0836 20.96 45.8303 20.64C46.5769 20.32 47.4836 19.84 48.5503 19.2L48.9343 21.504C47.7396 22.464 46.5876 23.1893 45.4783 23.68C44.3689 24.1707 43.2169 24.416 42.0223 24.416C39.0996 24.416 37.6383 22.976 37.6383 20.096V8.288H41.5103ZM52.0383 8.288V24H48.9663L48.5503 20.96L48.1663 20.512V8.288H52.0383ZM59.3985 8.288L59.9105 11.36L60.2625 11.808V24H56.3905V8.288H59.3985ZM67.0785 7.904L66.6945 11.488H65.5745C64.7425 11.488 63.8998 11.6267 63.0465 11.904C62.1932 12.1813 61.1265 12.5973 59.8465 13.152L59.5905 10.88C60.6998 9.94133 61.8305 9.216 62.9825 8.704C64.1345 8.17067 65.2438 7.904 66.3105 7.904H67.0785ZM76.3985 7.904C78.9372 7.904 80.7612 8.352 81.8705 9.248C82.9798 10.1227 83.5452 11.424 83.5665 13.152C83.5878 14.5813 83.2465 15.6693 82.5425 16.416C81.8598 17.1413 80.7185 17.504 79.1185 17.504H70.1585V15.104H78.0625C78.7878 15.104 79.2465 14.912 79.4385 14.528C79.6518 14.144 79.7585 13.6747 79.7585 13.12C79.7372 12.2453 79.4812 11.6373 78.9905 11.296C78.5212 10.9547 77.7105 10.784 76.5585 10.784C75.5558 10.784 74.7772 10.9227 74.2225 11.2C73.6678 11.4773 73.2732 11.9787 73.0385 12.704C72.8252 13.4293 72.7185 14.4747 72.7185 15.84C72.7185 17.2907 72.8572 18.4107 73.1345 19.2C73.4118 19.9893 73.8705 20.5333 74.5105 20.832C75.1505 21.1093 76.0038 21.248 77.0705 21.248C77.8598 21.248 78.7665 21.216 79.7905 21.152C80.8358 21.088 81.8385 21.0027 82.7985 20.896L83.1825 23.36C82.6065 23.5947 81.9452 23.7867 81.1985 23.936C80.4518 24.0853 79.6732 24.192 78.8625 24.256C78.0732 24.3413 77.3265 24.384 76.6225 24.384C74.7025 24.384 73.1558 24.1067 71.9825 23.552C70.8305 22.976 69.9878 22.08 69.4545 20.864C68.9425 19.648 68.6865 18.08 68.6865 16.16C68.6865 14.0907 68.9425 12.4587 69.4545 11.264C69.9878 10.048 70.8198 9.184 71.9505 8.672C73.1025 8.16 74.5852 7.904 76.3985 7.904ZM99.754 0.991999C100.074 0.991999 100.533 0.991999 101.13 0.991999C101.749 0.991999 102.442 1.00267 103.21 1.024C103.978 1.04533 104.767 1.07733 105.578 1.12C106.41 1.14133 107.199 1.184 107.946 1.248C108.693 1.312 109.343 1.38667 109.898 1.472V19.488C109.898 20.1067 110.058 20.576 110.378 20.896C110.698 21.1947 111.167 21.344 111.786 21.344H113.098L113.546 23.808C113.333 23.9147 113.013 24.0107 112.586 24.096C112.181 24.1813 111.754 24.2347 111.306 24.256C110.879 24.2987 110.517 24.32 110.218 24.32C108.917 24.32 107.893 23.9787 107.146 23.296C106.399 22.6133 106.026 21.664 106.026 20.448V3.84H101.13C100.234 3.81867 99.6153 4 99.274 4.384C98.9327 4.768 98.762 5.46133 98.762 6.464V24H94.858V5.984C94.858 4.93867 95.018 4.04267 95.338 3.296C95.658 2.54933 96.17 1.97333 96.874 1.568C97.5993 1.16267 98.5593 0.970666 99.754 0.991999ZM103.018 8.288V10.976H92.106V8.448L94.954 8.288H103.018ZM123.826 7.904C125.084 7.904 126.14 8.07467 126.994 8.416C127.868 8.736 128.53 9.29067 128.978 10.08C129.426 10.8693 129.65 11.9573 129.65 13.344V24H126.578L126.034 20.608L125.746 20.16V13.312C125.746 12.48 125.554 11.8827 125.17 11.52C124.786 11.136 124.05 10.944 122.962 10.944C122.151 10.944 121.127 10.976 119.89 11.04C118.674 11.104 117.447 11.1893 116.21 11.296L115.858 8.64C116.604 8.49067 117.447 8.36267 118.386 8.256C119.324 8.14933 120.274 8.064 121.234 8C122.194 7.936 123.058 7.904 123.826 7.904ZM127.986 14.336L127.954 16.736H120.754C120.114 16.7573 119.655 16.928 119.378 17.248C119.1 17.568 118.962 18.0053 118.962 18.56V19.424C118.962 20.064 119.132 20.5547 119.474 20.896C119.815 21.216 120.348 21.376 121.074 21.376C121.65 21.376 122.29 21.2587 122.994 21.024C123.698 20.7893 124.391 20.448 125.074 20C125.778 19.552 126.407 19.0187 126.962 18.4V20.416C126.748 20.736 126.439 21.12 126.034 21.568C125.628 21.9947 125.127 22.4213 124.53 22.848C123.954 23.2747 123.282 23.6267 122.514 23.904C121.767 24.1813 120.935 24.32 120.018 24.32C119.079 24.32 118.236 24.16 117.49 23.84C116.743 23.4987 116.156 23.008 115.73 22.368C115.303 21.7067 115.09 20.896 115.09 19.936V18.272C115.09 17.0347 115.495 16.0747 116.306 15.392C117.138 14.688 118.268 14.336 119.698 14.336H127.986ZM148.837 8.288L143.429 23.072C143.322 23.3493 143.151 23.5733 142.917 23.744C142.703 23.9147 142.437 24 142.117 24H138.725C138.426 24 138.159 23.9147 137.925 23.744C137.69 23.5733 137.519 23.3493 137.413 23.072L132.005 8.288H136.133L139.429 18.592C139.578 19.0613 139.717 19.5413 139.845 20.032C139.973 20.5013 140.09 20.96 140.197 21.408H140.613C140.762 20.9387 140.901 20.4693 141.029 20C141.178 19.5307 141.317 19.0613 141.445 18.592L144.741 8.288H148.837ZM158.18 7.904C160.718 7.904 162.542 8.352 163.652 9.248C164.761 10.1227 165.326 11.424 165.348 13.152C165.369 14.5813 165.028 15.6693 164.324 16.416C163.641 17.1413 162.5 17.504 160.9 17.504H151.94V15.104H159.844C160.569 15.104 161.028 14.912 161.22 14.528C161.433 14.144 161.54 13.6747 161.54 13.12C161.518 12.2453 161.262 11.6373 160.772 11.296C160.302 10.9547 159.492 10.784 158.34 10.784C157.337 10.784 156.558 10.9227 156.004 11.2C155.449 11.4773 155.054 11.9787 154.82 12.704C154.606 13.4293 154.5 14.4747 154.5 15.84C154.5 17.2907 154.638 18.4107 154.916 19.2C155.193 19.9893 155.652 20.5333 156.292 20.832C156.932 21.1093 157.785 21.248 158.852 21.248C159.641 21.248 160.548 21.216 161.572 21.152C162.617 21.088 163.62 21.0027 164.58 20.896L164.964 23.36C164.388 23.5947 163.726 23.7867 162.98 23.936C162.233 24.0853 161.454 24.192 160.644 24.256C159.854 24.3413 159.108 24.384 158.404 24.384C156.484 24.384 154.937 24.1067 153.764 23.552C152.612 22.976 151.769 22.08 151.236 20.864C150.724 19.648 150.468 18.08 150.468 16.16C150.468 14.0907 150.724 12.4587 151.236 11.264C151.769 10.048 152.601 9.184 153.732 8.672C154.884 8.16 156.366 7.904 158.18 7.904Z" fill="#779611"/>
</svg>
